<svg width="12" height="17" viewBox="0 0 12 17" fill="none" xmlns="http://www.w3.org/2000/svg">
<path d="M11.7243 3.80123V0H0.68457V3.80123C0.68457 4.97214 1.3251 6.05821 2.3801 6.72003L4.5466 8.07761L2.3801 9.43519C1.3251 10.097 0.68457 11.1831 0.68457 12.354V16.1552H11.7432V12.3201C11.7432 11.1491 11.1026 10.0631 10.0476 9.40125L7.88114 8.04367L10.0476 6.68609C11.1026 6.04124 11.7243 4.95517 11.7243 3.80123ZM8.97381 10.8097C9.52015 11.1491 9.85925 11.7261 9.85925 12.3201V14.4243H2.56849V12.3201C2.56849 11.7091 2.90759 11.1491 3.45393 10.8097L6.20445 9.0958L8.97381 10.8097ZM9.84041 3.80123C9.84041 4.41214 9.50131 4.97214 8.95497 5.31154L6.20445 7.02549L3.43509 5.31154C2.88875 4.97214 2.54965 4.39517 2.54965 3.80123V1.69698H9.84041V3.80123Z" fill="#737578"/>
</svg>
