<svg width="18" height="16" viewBox="0 0 18 16" fill="none" xmlns="http://www.w3.org/2000/svg">
<path d="M5.24796 13.1663L2.70711 15.7071C2.31658 16.0976 1.68342 16.0976 1.29289 15.7071C0.902369 15.3166 0.902369 14.6834 1.29289 14.2929L3.41355 12.1722C1.9437 11.1839 0.671365 9.79388 0 8C1.5 3.99202 6 2 9 2C10.1197 2 11.4484 2.2775 12.752 2.83375L15.2929 0.292893C15.6834 -0.0976311 16.3166 -0.0976311 16.7071 0.292893C17.0976 0.683418 17.0976 1.31658 16.7071 1.70711C9.07159 9.34821 5.25188 13.1679 5.24796 13.1663ZM6.85015 13.7105L8.58222 11.9784C8.71953 11.9927 8.85891 12 9 12C11.2091 12 13 10.2091 13 8C13 7.85891 12.9927 7.71953 12.9784 7.58222L15.7879 4.77275C16.7339 5.64289 17.5203 6.71838 18 8C16.5 12.008 12 14 9 14C8.34001 14 7.60742 13.9036 6.85015 13.7105ZM5.55382 10.032L7.06774 8.51804C7.02356 8.35282 7 8.17916 7 8C7 6.89543 7.89543 6 9 6C9.17916 6 9.35282 6.02356 9.51804 6.06774L11.032 4.55382C10.4365 4.20193 9.74181 4 9 4C6.79086 4 5 5.79086 5 8C5 8.74181 5.20193 9.43645 5.55382 10.032Z" fill="#212429"/>
</svg>
