<svg width="19" height="18" viewBox="0 0 19 18" fill="none" xmlns="http://www.w3.org/2000/svg">
<path d="M17.3016 4.57327L14.0097 0.756181L13.3591 0H5.582C4.53818 0 3.69336 0.845427 3.69336 1.88985V4.29226H4.86441L4.86381 2.34995C4.86502 1.76261 5.33718 1.28744 5.92331 1.28744L12.5746 1.28141V4.43216C12.5752 5.60563 13.5237 6.55598 14.6978 6.55598H17.0001L16.8867 15.6458C16.8855 16.2308 16.4116 16.7023 15.8266 16.7065L5.84009 16.7023C5.30582 16.7023 4.87527 16.1771 4.87286 15.5313V14.763H3.69939V15.9093C3.69939 17.0635 4.47185 18 5.42039 18L16.1685 17.9964C17.2118 17.9964 18.059 17.1467 18.059 16.1059V5.45307L17.3016 4.57327Z" fill="#018BF6"/>
<path d="M12.1887 15.3474H0V3.70679H12.1887V15.3474ZM1.17106 14.1763H11.0159V4.87845H1.17106" fill="#018BF6"/>
<path d="M10.2827 7.18909L8.50136 12.5999H7.02276L6.00487 9.46366L4.93754 12.5999H3.46377L1.80005 7.18909H3.31543L4.28447 10.686L5.46517 7.18909H6.61754L7.71623 10.686L8.7697 7.18909H10.2827Z" fill="#018BF6"/>
</svg>
