<svg width="126" height="24" viewBox="0 0 126 24" fill="none" xmlns="http://www.w3.org/2000/svg">
<path d="M14.0732 4.06901e-08L11.9883 10.4404C11.8935 10.7459 11.6882 10.8985 11.3723 10.8985H9.61908C9.28195 10.8985 9.07662 10.7405 9.0031 10.4246L7.42359 2.41662C7.3182 1.86921 7.24443 1.45856 7.20246 1.18462H6.87077L6.63385 2.41662L5.07015 10.4246C5.04892 10.5616 4.97785 10.6749 4.8569 10.7642C4.73577 10.8538 4.60151 10.8985 4.45415 10.8985H2.68513C2.35862 10.8985 2.15846 10.7459 2.08492 10.4404L-1.3772e-06 4.06901e-08H1.67426L3.23795 8.30815C3.26954 8.48728 3.33272 8.95051 3.42746 9.69808H3.79075C3.84333 9.24544 3.92231 8.78195 4.02769 8.30815L5.59139 0.521256C5.66492 0.173769 5.86508 2.5472e-05 6.19159 2.5472e-05H7.88164C8.02897 2.5472e-05 8.15805 0.0501279 8.26862 0.150102C8.37921 0.250282 8.45026 0.373923 8.48187 0.521256L10.0297 8.32392C10.1139 8.74523 10.1929 9.20326 10.2667 9.6981H10.6299C10.6509 9.55077 10.6825 9.32444 10.7247 9.01892C10.7667 8.71364 10.8037 8.48733 10.8353 8.33974L12.399 5.12946e-05H14.0732V4.06901e-08Z" transform="translate(35.4795 6.54199)" fill="black"/>
<path d="M6.79182 9.61908L6.87077 10.8353C5.91246 10.9197 4.35397 10.9617 2.19549 10.9617C1.52149 10.9617 0.989641 10.7854 0.600205 10.4325C0.210539 10.0798 0.0103602 9.60328 1.17688e-06 9.0031V1.95856C0.0103602 1.35836 0.210539 0.882052 0.600205 0.529128C0.989641 0.176436 1.52149 1.7841e-07 2.19549 1.7841e-07C4.35397 1.7841e-07 5.91246 0.0422052 6.87077 0.126359L6.79182 1.35836H2.464C2.14813 1.35836 1.92428 1.43485 1.79272 1.58738C1.66095 1.74015 1.59531 2.00077 1.59531 2.36923V4.54892H6.19162V5.82831H1.59531V8.60821C1.59531 8.97692 1.66095 9.23754 1.79272 9.39003C1.92428 9.54282 2.14813 9.61908 2.464 9.61908H6.79182Z" transform="translate(51.6533 6.51025)" fill="black"/>
<path d="M5.43343 5.33867V5.40185C6.2232 5.47564 6.78389 5.75203 7.11561 6.23108C7.4473 6.71036 7.61315 7.40261 7.61315 8.30813C7.61315 9.40341 7.35254 10.1509 6.83131 10.551C6.31008 10.9513 5.40187 11.1512 4.10664 11.1512C2.32705 11.1512 0.958054 11.109 2.65425e-06 11.0248V0.126359C0.852926 0.0422052 2.06367 -1.9093e-07 3.63282 -1.9093e-07C5.00151 -1.9093e-07 5.95192 0.197436 6.4838 0.592308C7.01539 0.98718 7.28141 1.73744 7.28141 2.84308C7.28141 3.63282 7.13384 4.23054 6.83915 4.6358C6.54425 5.04126 6.07561 5.27546 5.43343 5.33867ZM1.54792 4.77005H3.75921C4.51736 4.77005 5.04105 4.65159 5.33077 4.41467C5.62028 4.17774 5.76515 3.71723 5.76515 3.03262C5.76515 2.35885 5.6072 1.90872 5.29131 1.68215C4.97541 1.45582 4.39618 1.34256 3.55385 1.34256H1.54792V4.77005ZM1.54792 9.79282L3.86977 9.80862C4.70146 9.80862 5.26762 9.69015 5.56769 9.45323C5.86782 9.21633 6.01787 8.7452 6.01787 8.03959C6.01787 7.24982 5.85721 6.71282 5.5361 6.42851C5.2148 6.14421 4.6279 5.99687 3.77497 5.98626H1.54792V9.79282Z" transform="translate(61.0195 6.41553)" fill="black"/>
<path d="M5.43341 5.33867V5.40185C6.22318 5.47564 6.78387 5.75203 7.11559 6.23108C7.44728 6.71036 7.61313 7.40261 7.61313 8.30813C7.61313 9.40341 7.35251 10.1509 6.83128 10.551C6.31005 10.9513 5.40185 11.1512 4.10662 11.1512C2.32703 11.1512 0.958023 11.109 -2.35377e-06 11.0248V0.126359C0.852921 0.0422052 2.06364 -1.9093e-07 3.63282 -1.9093e-07C5.00151 -1.9093e-07 5.95192 0.197436 6.4838 0.592308C7.01539 0.98718 7.28141 1.73744 7.28141 2.84308C7.28141 3.63282 7.13384 4.23054 6.83915 4.6358C6.54423 5.04126 6.07559 5.27546 5.43341 5.33867ZM1.5479 4.77005H3.75918C4.51733 4.77005 5.04103 4.65159 5.33075 4.41467C5.62026 4.17774 5.76513 3.71723 5.76513 3.03262C5.76513 2.35885 5.60718 1.90872 5.29128 1.68215C4.97538 1.45582 4.39615 1.34256 3.55382 1.34256H1.5479V4.77005ZM1.5479 9.79282L3.86977 9.80862C4.70146 9.80862 5.26762 9.69015 5.56769 9.45323C5.86782 9.21633 6.01787 8.7452 6.01787 8.03959C6.01787 7.24982 5.85721 6.71282 5.53611 6.42851C5.2148 6.14421 4.6279 5.99687 3.77498 5.98626H1.54792V9.79282H1.5479Z" transform="translate(71.2383 6.41553)" fill="black"/>
<path d="M6.96559 7.61313H2.62195L1.61108 10.8985H1.35216e-06L3.41169 0.426462C3.49585 0.142154 3.69056 4.06901e-08 3.9961 4.06901e-08H5.60718C5.92308 4.06901e-08 6.11264 0.142154 6.1758 0.426462L9.60331 10.8985H7.97644L6.96559 7.61313ZM6.5549 6.23897L5.27551 2.10069C5.24392 2.00592 5.199 1.85859 5.14126 1.65846C5.08326 1.45854 5.03859 1.31097 5.007 1.2162H4.58056L4.32784 2.10069L3.04846 6.23897H6.5549Z" transform="translate(80.2734 6.54199)" fill="black"/>
<path d="M8.5292 2.56817e-05V10.2825C8.5292 10.6932 8.33423 10.8985 7.94482 10.8985H6.44428C6.12841 10.8985 5.90185 10.7354 5.76513 10.4088L2.36926 2.98526C1.99018 2.16392 1.77423 1.65851 1.72167 1.46895H1.50051C1.5531 1.89023 1.57949 2.39567 1.57949 2.98526V10.8985H-2.50401e-07V0.616026C-2.50401e-07 0.205359 0.19987 2.56817e-05 0.600204 2.56817e-05H2.05334C2.35862 2.56817e-05 2.59034 0.16341 2.74831 0.489667L6.04944 7.72372C6.09141 7.81846 6.16521 7.97395 6.27054 8.18967C6.37574 8.40559 6.47315 8.61095 6.56277 8.80564C6.65208 9.00062 6.7338 9.18226 6.80759 9.35056H7.04452C6.99167 8.71877 6.96554 8.15559 6.96554 7.66051V-1.4085e-07H8.5292V2.56817e-05Z" transform="translate(91.7402 6.54199)" fill="black"/>
<path d="M2.70095 5.8599H1.46892C1.54249 6.30215 1.57951 6.67605 1.57951 6.98133V10.8985H-1.55248e-06V4.06901e-08H1.57951V3.34851C1.57951 3.80138 1.54249 4.21205 1.46892 4.58051H2.70095L5.90728 4.06901e-08H7.62895L4.54895 4.45415C4.38041 4.69651 4.15925 4.9492 3.88556 5.21231V5.25969C4.18023 5.51241 4.433 5.78636 4.64372 6.08103L7.83428 10.8985H6.08105L2.70095 5.8599Z" transform="translate(103.317 6.54199)" fill="black"/>
<path d="M1.57948 0H-6.10978e-06V10.8985H1.57948V0Z" transform="translate(113.142 6.54199)" fill="black"/>
<path d="M7.80264 11.0406H6.11259L5.18069 7.64472C4.94898 6.91818 4.49092 6.55487 3.80653 6.55487L1.56369 6.53905V11.0406H4.70753e-06V0.142154C0.894851 0.0473844 2.16389 5.94702e-08 3.80653 5.94702e-08C5.12269 5.94702e-08 6.05187 0.226564 6.59436 0.679179C7.13656 1.13205 7.40782 1.95856 7.40782 3.15897C7.40782 4.03313 7.25234 4.69108 6.94185 5.13333C6.63113 5.57559 6.1178 5.8441 5.40185 5.93887V6.01785C6.10718 6.22862 6.5652 6.755 6.776 7.59733L7.80264 11.0406ZM1.56372 5.19649H3.77494C4.5541 5.18613 5.08842 5.04644 5.37816 4.77792C5.66762 4.50941 5.81249 4.00151 5.81249 3.25372C5.81249 2.5168 5.66762 2.01654 5.37816 1.75318C5.08839 1.49008 4.55407 1.35833 3.77494 1.35833C2.70092 1.35833 1.96374 1.36372 1.56372 1.3741V5.19649Z" transform="translate(117.77 6.3999)" fill="black"/>
<path d="M18.9744 24H6.87179C3.09231 24 0 20.9077 0 17.1282V6.87179C0 3.09231 3.09231 0 6.87179 0H18.9744C22.7538 0 25.8462 3.09231 25.8462 6.87179V17.1282C25.8462 20.9077 22.7538 24 18.9744 24Z" fill="#FFDE52"/>
<path d="M0.248039 0.248442C-0.0826791 0.579673 -0.0826791 1.11665 0.248039 1.44798C0.578705 1.77924 1.11489 1.77924 1.4456 1.44798C1.77637 1.11662 1.77637 0.579647 1.4456 0.248442C1.11494 -0.0828141 0.578705 -0.0828141 0.248039 0.248442Z" transform="translate(15.9277 8.59668)" fill="#0F0F0F"/>
<path d="M1.25537 0.109311L0.108936 1.25754C-0.0364481 1.40316 -0.0362949 1.63903 0.109295 1.78444C0.182013 1.85705 0.27732 1.89336 0.372525 1.89336C0.467961 1.89336 0.563397 1.85688 0.636166 1.784L1.7826 0.635824C1.92796 0.490208 1.92783 0.254362 1.78222 0.108978C1.63668 -0.0364583 1.40076 -0.0363044 1.25537 0.109311Z" transform="translate(17.1289 11.6958)" fill="#0F0F0F"/>
<path d="M1.25531 0.10934L0.108902 1.25755C-0.0364575 1.40314 -0.0362782 1.63903 0.109312 1.78439C0.182029 1.85701 0.277285 1.89334 0.372515 1.89334C0.467951 1.89334 0.563362 1.85685 0.636131 1.78398L1.78257 0.635801C1.92793 0.490211 1.92772 0.254289 1.78213 0.10893C1.63659 -0.036455 1.4007 -0.0363014 1.25531 0.10934Z" transform="translate(16.0234 12.8052)" fill="#0F0F0F"/>
<path d="M1.25531 0.109363L0.1089 1.25752C-0.036459 1.40316 -0.0362782 1.63905 0.109312 1.78441C0.18203 1.857 0.277285 1.89331 0.372516 1.89331C0.467951 1.89331 0.563387 1.85685 0.636131 1.78398L1.78257 0.635772C1.92795 0.490208 1.92772 0.254285 1.78213 0.108926C1.63657 -0.0364582 1.40072 -0.0363037 1.25531 0.109363Z" transform="translate(14.9639 13.8652)" fill="#0F0F0F"/>
<path d="M1.25531 0.10933L0.1089 1.25754C-0.0364589 1.40313 -0.036278 1.63902 0.109312 1.78438C0.18203 1.857 0.277285 1.89333 0.372516 1.89333C0.467952 1.89333 0.563362 1.85684 0.636131 1.78397L1.78257 0.635766C1.92795 0.490202 1.92772 0.254279 1.78213 0.10892C1.63659 -0.0364392 1.40072 -0.0363112 1.25531 0.10933Z" transform="translate(13.9189 14.9097)" fill="#0F0F0F"/>
<path d="M1.25531 0.109343L0.1089 1.25752C-0.0364587 1.40314 -0.0362794 1.63901 0.10931 1.78439C0.182028 1.85701 0.277285 1.89334 0.372516 1.89334C0.467952 1.89334 0.563362 1.85683 0.636131 1.78396L1.78257 0.635753C1.92795 0.490189 1.92772 0.254266 1.78213 0.108907C1.63657 -0.0364522 1.4007 -0.0362976 1.25531 0.109343Z" transform="translate(13.4854 15.3433)" fill="#0F0F0F"/>
<path d="M0.248039 0.248442C-0.0826791 0.579673 -0.0826791 1.11667 0.248039 1.44798C0.578705 1.77924 1.11489 1.77924 1.4456 1.44798C1.77637 1.11662 1.77637 0.579647 1.4456 0.248442C1.11494 -0.0828145 0.578705 -0.0828145 0.248039 0.248442Z" transform="translate(15.9277 8.59131)" fill="#0F0F0F"/>
<path d="M1.25537 0.109333L0.108936 1.25756C-0.0364481 1.40318 -0.0362949 1.63905 0.109295 1.78446C0.182013 1.85705 0.27732 1.89339 0.372525 1.89339C0.467961 1.89339 0.563397 1.85687 0.636166 1.78403L1.7826 0.635847C1.92796 0.490231 1.92783 0.254385 1.78222 0.108975C1.63668 -0.0364612 1.40076 -0.036308 1.25537 0.109333Z" transform="translate(17.1289 11.6904)" fill="#0F0F0F"/>
<path d="M1.25531 0.10933L0.108902 1.25751C-0.0364575 1.40312 -0.0362782 1.63902 0.109312 1.78438C0.182029 1.857 0.277285 1.8933 0.372515 1.8933C0.467951 1.8933 0.563362 1.85684 0.636131 1.78397L1.78257 0.635766C1.92793 0.490176 1.92772 0.254279 1.78213 0.10892C1.63659 -0.0364393 1.4007 -0.0363105 1.25531 0.10933Z" transform="translate(16.0234 12.7998)" fill="#0F0F0F"/>
<path d="M1.25531 0.10932L0.1089 1.25753C-0.036459 1.40312 -0.0362782 1.63901 0.109312 1.78437C0.18203 1.85699 0.277285 1.89332 0.372516 1.89332C0.467951 1.89332 0.563387 1.85683 0.636131 1.78399L1.78257 0.635783C1.92795 0.490193 1.92772 0.254295 1.78213 0.10891C1.63657 -0.036449 1.40072 -0.0362953 1.25531 0.10932Z" transform="translate(14.9639 13.8599)" fill="#0F0F0F"/>
<path d="M1.25531 0.10933L0.1089 1.25751C-0.0364589 1.40313 -0.036278 1.639 0.109312 1.78438C0.18203 1.857 0.277285 1.8933 0.372516 1.8933C0.467952 1.8933 0.563362 1.85684 0.636131 1.78397L1.78257 0.635766C1.92795 0.490176 1.92772 0.254278 1.78213 0.10892C1.63659 -0.0364395 1.40072 -0.0363115 1.25531 0.10933Z" transform="translate(13.9189 14.9043)" fill="#0F0F0F"/>
<path d="M1.25531 0.109302L0.1089 1.25751C-0.0364587 1.4031 -0.0362794 1.63899 0.10931 1.78435C0.182028 1.85697 0.277285 1.8933 0.372516 1.8933C0.467952 1.8933 0.563362 1.85681 0.636131 1.78397L1.78257 0.635763C1.92795 0.490173 1.92772 0.254275 1.78213 0.10889C1.63657 -0.0364429 1.4007 -0.0362877 1.25531 0.109302Z" transform="translate(13.4854 15.3379)" fill="#0F0F0F"/>
<path d="M8.42397 0H0V8.91272H8.42397V0Z" transform="translate(16.0898 17.189) rotate(-135)" fill="white"/>
<path d="M0.195346 9.73735C-0.0651153 9.47663 -0.0651153 9.05381 0.195346 8.79304L8.79337 0.195558C9.05394 -0.0651861 9.47678 -0.0651861 9.7374 0.195558L14.8722 5.33056C15.1331 5.59074 15.1326 6.0143 14.8722 6.27474L6.27447 14.8724C6.01376 15.133 5.59104 15.133 5.33022 14.8724L0.195346 9.73735Z" transform="translate(7.10254 5.10303)" stroke="black" stroke-width="0.5" stroke-miterlimit="10"/>
<path d="M7.59398 1.19946L1.19967 7.59364L-2.62921e-07 6.39392L6.39392 0L7.59398 1.19946Z" transform="translate(11.1309 5.99658)" fill="black"/>
<path d="M9.73755 14.8723C9.47683 15.133 9.05409 15.133 8.79329 14.8723L0.195346 6.27469C-0.0651152 6.01428 -0.0651152 5.59071 0.195346 5.3311L5.3303 0.195558C5.59109 -0.0651859 6.01414 -0.0651859 6.27429 0.195558L14.8719 8.79305C15.1332 9.05425 15.1332 9.47661 14.8719 9.73822L9.73755 14.8723Z" transform="translate(3.63867 5.10303)" fill="white"/>
<path d="M9.73755 14.8723C9.47683 15.133 9.05409 15.133 8.7933 14.8723L0.195346 6.27469C-0.0651152 6.01428 -0.0651152 5.59071 0.195346 5.3311L5.33029 0.195558C5.59109 -0.0651859 6.01414 -0.0651859 6.27429 0.195558L14.8719 8.79305C15.1332 9.05425 15.1332 9.47661 14.8719 9.73823L9.73755 14.8723Z" transform="translate(3.63867 5.10303)" stroke="black" stroke-width="0.5" stroke-miterlimit="10"/>
<path d="M7.26948 11.3425C7.06305 11.5489 6.72466 11.5464 6.51359 11.3353L0.159843 4.98145C-0.0506952 4.77086 -0.0537211 4.43245 0.153561 4.22596L4.22602 0.153758C4.43256 -0.0539346 4.7711 -0.0506012 4.9812 0.160014L11.3354 6.51319C11.546 6.72471 11.5489 7.06319 11.3424 7.26942L7.26948 11.3425Z" transform="translate(4.81934 6.35547)" fill="white"/>
<path d="M7.26948 11.3425C7.06305 11.5489 6.72466 11.5464 6.51359 11.3353L0.159843 4.98145C-0.0506952 4.77086 -0.0537211 4.43245 0.153561 4.22596L4.22602 0.153758C4.43256 -0.0539346 4.7711 -0.0506012 4.9812 0.160014L11.3354 6.51319C11.546 6.72471 11.5489 7.06319 11.3424 7.26942L7.26948 11.3425Z" transform="translate(4.81934 6.35547)" stroke="black" stroke-width="0.5" stroke-miterlimit="10"/>
<path d="M0.896378 0.1535C1.10107 0.358295 1.10107 0.691064 0.896378 0.895705C0.691147 1.1005 0.358635 1.1005 0.153635 0.895705C-0.0512115 0.691064 -0.0512115 0.358808 0.153635 0.1535C0.358609 -0.0511664 0.691147 -0.0511664 0.896378 0.1535Z" transform="translate(14.3984 16.0303)" fill="white"/>
<path d="M0.896378 0.1535C1.10107 0.358295 1.10107 0.691064 0.896378 0.895705C0.691147 1.1005 0.358635 1.1005 0.153635 0.895705C-0.0512115 0.691064 -0.0512115 0.358808 0.153635 0.1535C0.358609 -0.0511664 0.691147 -0.0511664 0.896378 0.1535Z" transform="translate(14.3984 16.0303)" stroke="black" stroke-width="0.5" stroke-miterlimit="10"/>
</svg>
