<svg width="3" height="10" viewBox="0 0 3 10" fill="none" xmlns="http://www.w3.org/2000/svg">
<path d="M0.8125 8.4375C0.8125 8.25521 0.869792 8.10156 0.984375 7.97656C1.10417 7.84635 1.26823 7.78125 1.47656 7.78125C1.6849 7.78125 1.84896 7.84635 1.96875 7.97656C2.08854 8.10156 2.14844 8.25521 2.14844 8.4375C2.14844 8.61979 2.08854 8.77083 1.96875 8.89062C1.84896 9.00521 1.6849 9.0625 1.47656 9.0625C1.26823 9.0625 1.10417 9.00521 0.984375 8.89062C0.869792 8.77083 0.8125 8.61979 0.8125 8.4375ZM0.828125 1.22656C0.828125 1.04427 0.885417 0.890625 1 0.765625C1.11979 0.635417 1.28385 0.570312 1.49219 0.570312C1.70052 0.570312 1.86458 0.635417 1.98438 0.765625C2.10417 0.890625 2.16406 1.04427 2.16406 1.22656C2.16406 1.40885 2.10417 1.5599 1.98438 1.67969C1.86458 1.79427 1.70052 1.85156 1.49219 1.85156C1.28385 1.85156 1.11979 1.79427 1 1.67969C0.885417 1.5599 0.828125 1.40885 0.828125 1.22656Z" fill="#737578"/>
</svg>
