<svg width="18" height="18" viewBox="0 0 18 18" fill="none" xmlns="http://www.w3.org/2000/svg">
<path d="M17.8153 15.1255C16.7957 17.5705 14.4051 17.999 13.6239 17.999C13.3945 17.999 9.82195 18.1885 4.68636 13.3158C0.553368 9.39441 0.0483692 5.17753 0.00436924 4.37633C-0.0384307 3.59593 0.184969 1.63823 2.87736 0.183657C3.21096 0.00341077 3.87236 -0.0764097 4.04316 0.094434C4.11896 0.170253 6.37876 3.8898 6.43816 4.01304C6.49756 4.13607 6.52736 4.2573 6.52736 4.37613C6.52736 4.54597 6.40636 4.75843 6.16416 5.01329C5.92216 5.26816 5.65896 5.50182 5.37436 5.71407C5.08976 5.92653 4.82656 6.15158 4.58436 6.38944C4.34236 6.6271 4.22136 6.82275 4.22136 6.97559C4.23776 7.37229 4.56276 8.79326 7.03856 10.9692C9.51475 13.1458 10.7076 13.7589 10.8222 13.8013C10.9369 13.8438 11.0323 13.8648 11.1087 13.8648C11.2617 13.8648 11.4571 13.7439 11.6949 13.5019C11.9325 13.2596 12.7319 12.1637 12.9867 11.9215C13.2415 11.6796 13.4539 11.5586 13.6239 11.5586C13.7427 11.5586 13.8637 11.5882 13.9867 11.6476C14.1099 11.707 17.8333 13.8864 17.9045 13.9592C18.0977 14.1572 17.9613 14.7754 17.8153 15.1255Z" fill="#018BF6"/>
</svg>
