<svg width="87" height="70" viewBox="0 0 87 70" fill="none" xmlns="http://www.w3.org/2000/svg">
<path d="M58.234 6.089L55.204 1.546C54.638 0.693 53.34 0 52.318 0H33.739C32.715 0 31.417 0.693001 30.847 1.547L27.82 6.09H8.608C3.862 6.09 0 9.95 0 14.694V60.592C0 65.339 3.862 69.201 8.608 69.201H77.451C82.196 69.201 86.056 65.339 86.056 60.592V14.694C86.056 9.95 82.196 6.09 77.451 6.09H58.234V6.089ZM13.353 22.894C10.676 22.894 8.505 20.724 8.505 18.046C8.505 15.368 10.675 13.198 13.353 13.198C16.031 13.198 18.201 15.368 18.201 18.046C18.201 20.724 16.031 22.894 13.353 22.894ZM43.028 57.723C31.941 57.723 22.948 48.734 22.948 37.646C22.948 26.554 31.941 17.565 43.028 17.565C54.117 17.565 63.109 26.554 63.109 37.646C63.109 48.734 54.117 57.723 43.028 57.723Z" fill="#E8E9E9"/>
<path d="M43.0281 49.9263C49.8107 49.9263 55.3091 44.4279 55.3091 37.6453C55.3091 30.8626 49.8107 25.3643 43.0281 25.3643C36.2455 25.3643 30.7471 30.8626 30.7471 37.6453C30.7471 44.4279 36.2455 49.9263 43.0281 49.9263Z" fill="#E8E9E9"/>
</svg>
