<svg width="20" height="20" viewBox="0 0 20 20" fill="none" xmlns="http://www.w3.org/2000/svg">
<path fill-rule="evenodd" clip-rule="evenodd" d="M11.7874 10.8333C12.146 12.0381 13.2621 12.9167 14.5833 12.9167C15.9046 12.9167 17.0207 12.0381 17.3792 10.8333H19.1661C19.6266 10.8333 20 10.4634 20 10C20 9.53976 19.6271 9.16667 19.1661 9.16667H17.3792C17.0207 7.96188 15.9046 7.08333 14.5833 7.08333C13.2621 7.08333 12.146 7.96188 11.7874 9.16667H0.833912C0.373356 9.16667 0 9.53655 0 10C0 10.4602 0.37289 10.8333 0.833912 10.8333H11.7874ZM8.21255 16.25C7.85399 15.0452 6.73793 14.1667 5.41667 14.1667C4.09541 14.1667 2.97935 15.0452 2.62078 16.25H0.833912C0.373356 16.25 0 16.6199 0 17.0833C0 17.5436 0.37289 17.9167 0.833912 17.9167H2.62078C2.97935 19.1215 4.09541 20 5.41667 20C6.73793 20 7.85399 19.1215 8.21255 17.9167H19.1661C19.6266 17.9167 20 17.5468 20 17.0833C20 16.6231 19.6271 16.25 19.1661 16.25H8.21255ZM8.21255 2.08333C7.85399 0.878546 6.73793 0 5.41667 0C4.09541 0 2.97935 0.878546 2.62078 2.08333H0.833912C0.373356 2.08333 0 2.45322 0 2.91667C0 3.3769 0.37289 3.75 0.833912 3.75H2.62078C2.97935 4.95479 4.09541 5.83333 5.41667 5.83333C6.73793 5.83333 7.85399 4.95479 8.21255 3.75H19.1661C19.6266 3.75 20 3.38011 20 2.91667C20 2.45643 19.6271 2.08333 19.1661 2.08333H8.21255ZM5.41667 4.16667C4.72631 4.16667 4.16667 3.60702 4.16667 2.91667C4.16667 2.22631 4.72631 1.66667 5.41667 1.66667C6.10702 1.66667 6.66667 2.22631 6.66667 2.91667C6.66667 3.60702 6.10702 4.16667 5.41667 4.16667ZM5.41667 18.3333C4.72631 18.3333 4.16667 17.7737 4.16667 17.0833C4.16667 16.393 4.72631 15.8333 5.41667 15.8333C6.10702 15.8333 6.66667 16.393 6.66667 17.0833C6.66667 17.7737 6.10702 18.3333 5.41667 18.3333ZM14.5833 8.75C15.2737 8.75 15.8333 9.30964 15.8333 10C15.8333 10.6904 15.2737 11.25 14.5833 11.25C13.893 11.25 13.3333 10.6904 13.3333 10C13.3333 9.30964 13.893 8.75 14.5833 8.75Z" fill="white"/>
</svg>
