<svg width="21" height="18" viewBox="0 0 21 18" fill="none" xmlns="http://www.w3.org/2000/svg">
<path d="M5.70329 8.33332C5.53051 8.50641 5.43506 8.73678 5.43506 8.98082C5.43506 9.22582 5.53019 9.45555 5.70329 9.62832L9.85047 13.7758C9.93638 13.862 10.0376 13.9298 10.148 13.975C10.2603 14.0218 10.3786 14.046 10.4996 14.046C10.6201 14.046 10.7385 14.0221 10.8476 13.9766C10.9609 13.9301 11.0621 13.863 11.1474 13.7771L15.2958 9.62864C15.6528 9.27196 15.6528 8.69128 15.2961 8.33396L15.2958 8.33332C14.9388 7.97664 14.3578 7.97696 14.0011 8.33364L11.4156 10.9195V1.55C11.4156 1.04505 11.0048 0.634277 10.4999 0.634277C9.99492 0.634277 9.58415 1.04505 9.58415 1.55V10.9192L6.9986 8.333C6.64129 7.976 6.06029 7.97696 5.70329 8.33332Z" fill="#018BF6"/>
<path d="M21 10.8025H19.0909V15.2847H1.90909V11.0828H0V17.1938H21V10.8025Z" fill="#018BF6"/>
</svg>
