<svg width="27" height="27" viewBox="0 0 27 27" fill="none" xmlns="http://www.w3.org/2000/svg">
<path d="M26.3749 12.8767C26.7202 12.8767 27 13.1566 27 13.5018C27 13.8471 26.7202 14.127 26.3749 14.127H21.5171C21.1718 14.127 20.892 13.8471 20.892 13.5018C20.892 13.1566 21.1718 12.8767 21.5171 12.8767H26.3749Z" fill="#226EF2"/>
<path d="M20.7574 16.9671L24.9642 19.3961C25.2639 19.5695 25.3658 19.9527 25.1939 20.2508C25.0205 20.5505 24.6388 20.6524 24.3391 20.479L20.1323 18.0516C19.9315 17.936 19.819 17.7261 19.819 17.5101C19.819 17.4036 19.8463 17.2956 19.9026 17.1983C20.076 16.8972 20.4578 16.7953 20.7574 16.9671Z" fill="#C5D4ED"/>
<path d="M17.1978 19.9031C17.4974 19.7297 17.8792 19.8331 18.0526 20.1312L20.48 24.3382C20.6533 24.6363 20.5514 25.0195 20.2518 25.1929C19.9522 25.3648 19.5689 25.2629 19.3971 24.9633L16.9681 20.7579C16.9119 20.659 16.8845 20.5525 16.8845 20.4461C16.8845 20.2286 16.997 20.0187 17.1978 19.9031Z" fill="#B7CCF2"/>
<path d="M12.8758 26.3759V21.518C12.8758 21.1727 13.1556 20.8929 13.5009 20.8929C13.8461 20.8929 14.126 21.1727 14.126 21.518V26.3759C14.126 26.7211 13.8461 27.001 13.5009 27.001C13.1556 27.001 12.8758 26.7211 12.8758 26.3759Z" fill="#8DAFEA"/>
<path d="M6.75097 25.1918C6.55021 25.0762 6.43766 24.8663 6.43766 24.6504C6.43766 24.5439 6.46504 24.4359 6.52131 24.3386L8.95174 20.1316C9.12513 19.832 9.50688 19.7301 9.8065 19.9035C10.1061 20.0754 10.208 20.4586 10.0346 20.7583L7.60421 24.9652C7.43235 25.2633 7.04907 25.3652 6.75097 25.1918Z" fill="#7DA5EA"/>
<path d="M1.80976 20.2504C1.75349 20.1515 1.72611 20.045 1.72611 19.9386C1.72611 19.7226 1.83866 19.5127 2.03942 19.3971L6.24629 16.9682C6.54591 16.7948 6.92766 16.8982 7.10104 17.1963C7.27443 17.4944 7.17253 17.8777 6.87291 18.0511L2.66604 20.48C2.3649 20.6519 1.98163 20.55 1.80976 20.2504Z" fill="#74A0EB"/>
<path d="M6.1084 13.5018C6.1084 13.8471 5.82855 14.127 5.4833 14.127H0.625482C0.280233 14.127 0.000384808 13.8471 0.000384808 13.5018C0.000384808 13.1566 0.280233 12.8767 0.625482 12.8767H5.4833C5.82855 12.8767 6.1084 13.1566 6.1084 13.5018Z" fill="#5D92ED"/>
<path d="M2.03801 7.60516C1.83725 7.48956 1.7247 7.27968 1.7247 7.0637C1.7247 6.95724 1.75208 6.84925 1.80835 6.75191C1.98174 6.45228 2.36349 6.35038 2.66311 6.52377L6.86997 8.95271C7.1696 9.12609 7.2715 9.50785 7.09812 9.80747C6.92473 10.1071 6.54298 10.209 6.24336 10.0356L2.03801 7.60516Z" fill="#4985EE"/>
<path d="M6.43712 2.35105C6.43712 2.13508 6.54967 1.92519 6.75043 1.8096C7.05005 1.63621 7.4318 1.73963 7.60518 2.03774L10.0356 6.24465C10.209 6.54428 10.1071 6.92604 9.80748 7.09942C9.50785 7.27281 9.1261 7.16939 8.95272 6.87128L6.52229 2.66437C6.46449 2.56398 6.43712 2.45752 6.43712 2.35105Z" fill="#4A86EF"/>
<path d="M13.5009 0.000312328C13.8461 0.000312328 14.126 0.280164 14.126 0.625417V5.48329C14.126 5.82855 13.8461 6.1084 13.5009 6.1084C13.1556 6.1084 12.8758 5.82855 12.8758 5.48329V0.625417C12.8758 0.280164 13.1556 0.000312328 13.5009 0.000312328Z" fill="#397CF0"/>
<path d="M20.4803 2.66403L18.0514 6.87095C17.878 7.17057 17.4963 7.27248 17.1967 7.09909C16.9959 6.9835 16.8834 6.77361 16.8834 6.55764C16.8834 6.45117 16.9107 6.34318 16.967 6.24584L19.3959 2.03893C19.5693 1.7393 19.9511 1.6374 20.2507 1.81079C20.5503 1.98265 20.6537 2.36593 20.4803 2.66403Z" fill="#2C74F0"/>
<path d="M19.9016 9.80409C19.8453 9.70522 19.8179 9.59876 19.8179 9.49229C19.8179 9.27632 19.9305 9.06643 20.1312 8.95084L24.3381 6.52038C24.6377 6.34699 25.0195 6.45042 25.1928 6.74852C25.3662 7.04663 25.2643 7.4299 24.9647 7.60329L20.7578 10.0337C20.4567 10.2056 20.0749 10.1037 19.9016 9.80409Z" fill="#2771F1"/>
</svg>
