<svg width="24" height="24" viewBox="0 0 24 24" fill="none" xmlns="http://www.w3.org/2000/svg">
<path d="M20.3016 7.57327L17.0097 3.75618L16.3591 3H8.582C7.53818 3 6.69336 3.84543 6.69336 4.88985V7.29226H7.86441L7.86381 5.34995C7.86502 4.76261 8.33718 4.28744 8.92331 4.28744L15.5746 4.28141V7.43216C15.5752 8.60563 16.5237 9.55598 17.6978 9.55598H20.0001L19.8867 18.6458C19.8855 19.2308 19.4116 19.7023 18.8266 19.7065L8.84009 19.7023C8.30582 19.7023 7.87527 19.1771 7.87286 18.5313V17.763H6.69939V18.9093C6.69939 20.0635 7.47185 21 8.42039 21L19.1685 20.9964C20.2118 20.9964 21.059 20.1467 21.059 19.1059V8.45307L20.3016 7.57327Z" fill="#018BF6"/>
<path d="M15.1887 18.3474H3V6.70679H15.1887V18.3474ZM4.17106 17.1763H14.0159V7.87845H4.17106" fill="#018BF6"/>
<path d="M13.2827 10.1892L11.5014 15.6001H10.0228L9.00487 12.4638L7.93754 15.6001H6.46377L4.80005 10.1892H6.31543L7.28447 13.6861L8.46517 10.1892H9.61754L10.7162 13.6861L11.7697 10.1892H13.2827Z" fill="#018BF6"/>
</svg>
